<?xml version="1.0" standalone="no"?>
<!DOCTYPE svg PUBLIC "-//W3C//DTD SVG 20010904//EN"
 "http://www.w3.org/TR/2001/REC-SVG-20010904/DTD/svg10.dtd">
<svg version="1.0" xmlns="http://www.w3.org/2000/svg"
 width="500.000000pt" height="500.000000pt" viewBox="0 0 500.000000 500.000000"
 preserveAspectRatio="xMidYMid meet">
<metadata>
Created by potrace 1.14, written by Peter Selinger 2001-2017
</metadata>
<g transform="translate(0.000000,500.000000) scale(0.100000,-0.100000)"
fill="#000000" stroke="none">
<path d="M2810 4632 c-58 -24 -141 -84 -172 -125 -14 -17 -31 -54 -39 -80 -9
-31 -31 -67 -60 -99 -25 -27 -46 -55 -47 -61 -1 -7 -5 -29 -8 -51 -4 -25 -3
-37 4 -32 6 4 8 -2 5 -16 -5 -22 -4 -21 28 7 19 16 29 24 22 16 -6 -7 -9 -19
-7 -26 3 -7 -7 -52 -22 -101 -18 -60 -28 -124 -33 -197 l-6 -108 -55 -23 c-46
-18 -55 -25 -52 -45 1 -13 11 -30 21 -39 10 -10 27 -38 36 -64 10 -26 28 -62
41 -80 13 -17 27 -48 30 -67 21 -111 193 -464 249 -511 23 -19 18 -30 -14 -30
-21 0 -36 -9 -55 -34 -14 -19 -35 -37 -45 -41 -10 -3 -21 -15 -24 -26 -4 -15
-2 -18 7 -10 10 8 16 4 24 -14 14 -30 4 -32 -29 -7 -24 19 -136 67 -199 85
-78 23 -140 11 -159 -29 -13 -30 -7 -46 15 -37 13 5 15 1 9 -18 -11 -37 -33
-67 -53 -73 -23 -8 -44 -50 -35 -72 4 -12 8 -13 14 -3 4 8 11 10 15 7 11 -11
-36 -97 -57 -103 -10 -4 -24 -15 -30 -26 -12 -23 -4 -54 11 -44 5 3 10 -1 10
-9 0 -21 -32 -86 -42 -86 -5 0 -7 4 -3 9 3 5 -28 30 -68 55 -40 25 -83 59 -95
76 -14 18 -32 30 -46 30 -49 0 -124 -89 -110 -132 3 -13 3 -19 -2 -15 -5 4
-13 22 -19 40 -9 29 -7 35 23 64 35 34 35 41 0 22 -12 -6 -18 -7 -14 -1 7 11
-19 36 -31 29 -4 -3 -14 1 -21 9 -11 12 -10 15 2 20 9 3 23 4 31 0 25 -9 17
11 -17 39 -22 19 -40 26 -60 23 -24 -4 -29 0 -39 31 -6 20 -15 41 -20 46 -4 6
-66 159 -139 340 -89 225 -129 337 -125 353 10 39 -5 92 -25 92 -10 0 -22 6
-27 13 -18 22 -255 631 -260 667 -8 66 -13 79 -36 103 -12 13 -30 21 -40 19
-10 -2 -27 4 -37 13 -30 27 -54 10 -91 -61 -38 -76 -36 -30 -21 -489 6 -165
11 -614 11 -997 l1 -697 -24 -26 c-47 -50 -53 -115 -30 -306 5 -40 3 -47 -18
-61 -24 -16 -94 -108 -82 -108 3 0 22 18 41 40 32 36 40 40 84 40 37 0 49 -4
49 -15 0 -22 7 -19 41 20 22 25 39 35 60 35 25 0 29 4 29 28 1 15 9 52 20 82
24 68 25 114 3 196 l-17 64 111 108 c109 105 128 134 121 183 -3 19 -9 14 -41
-35 -33 -50 -176 -201 -183 -193 -4 4 -25 1779 -21 1783 2 3 37 -85 76 -195
l72 -200 -23 -31 c-28 -38 -29 -121 -3 -202 25 -77 38 -84 31 -18 -17 164 -18
182 -8 192 8 8 14 3 22 -17 l11 -29 18 31 c23 37 68 73 90 72 10 0 12 -2 4 -6
-21 -8 -15 -26 7 -20 13 3 21 -1 26 -16 4 -12 2 -23 -5 -25 -6 -2 -11 -10 -11
-19 0 -9 -8 -13 -22 -12 -13 2 -29 0 -35 -4 -9 -6 -13 -2 -13 12 0 12 5 21 11
21 5 0 7 5 4 10 -4 6 -1 17 5 25 20 24 -5 17 -27 -7 -44 -49 -44 -56 -3 -183
22 -66 55 -174 74 -240 19 -66 38 -129 41 -140 11 -34 -107 185 -143 265 l-34
75 6 -53 c5 -54 21 -93 99 -238 104 -196 113 -339 31 -492 -19 -34 -34 -77
-34 -95 0 -30 3 -27 44 42 65 108 79 163 74 281 -2 55 -3 98 -2 97 1 -1 20
-47 42 -101 28 -67 38 -104 32 -111 -11 -14 5 -74 25 -90 6 -5 14 -36 18 -68
6 -66 32 -116 67 -134 57 -28 63 -126 18 -296 -26 -100 -32 -142 -32 -234 l-1
-112 -28 -7 c-15 -3 -41 -12 -58 -21 -17 -8 -32 -13 -35 -10 -9 8 -44 116 -44
134 0 10 -9 43 -20 73 -11 30 -20 55 -20 56 0 2 -37 -5 -56 -11 -18 -6 -20
-13 -16 -63 4 -54 2 -59 -38 -109 -23 -29 -48 -53 -56 -53 -8 0 -14 -6 -14
-14 0 -26 -18 -27 -48 -1 -35 29 -46 32 -34 7 13 -24 4 -75 -16 -90 -9 -8 -34
-22 -55 -33 -32 -17 -37 -17 -37 -4 0 9 -20 -6 -49 -36 -27 -28 -53 -49 -58
-46 -16 10 -28 -7 -48 -66 -11 -31 -23 -57 -27 -57 -4 0 -7 -3 -6 -8 3 -9 -32
-113 -42 -127 -4 -5 -11 -29 -15 -52 -7 -43 -24 -59 -26 -25 0 9 -5 2 -10 -16
-8 -28 -12 -32 -24 -22 -8 7 -15 28 -15 47 0 31 3 35 21 30 22 -6 21 -7 5 48
-2 6 -6 18 -11 28 -4 10 -2 24 6 33 7 9 12 33 10 54 -1 21 3 48 9 59 7 15 7
21 0 21 -7 0 -8 6 0 19 5 11 10 27 10 37 0 9 17 31 37 48 20 17 44 40 52 50 9
11 26 30 39 44 42 44 18 31 -38 -20 -30 -28 -64 -58 -76 -67 -11 -9 -27 -30
-35 -46 -9 -17 -20 -29 -26 -28 -8 2 -11 -19 -11 -60 1 -34 -2 -96 -7 -138
l-8 -76 -34 7 c-41 10 -62 26 -62 48 0 82 -5 129 -17 147 -8 12 -11 25 -8 28
4 4 1 14 -7 24 -9 11 -10 14 -1 9 8 -5 12 0 12 17 0 24 37 67 59 67 7 0 9 5 5
11 -5 8 -35 9 -101 5 l-94 -7 -35 30 c-34 31 -83 41 -111 23 -23 -14 163 -368
223 -424 13 -13 24 -27 24 -31 0 -7 32 -55 55 -84 6 -6 21 -28 35 -47 34 -48
50 -49 81 -1 15 22 53 67 85 100 54 55 118 147 80 116 -17 -14 -36 -7 -36 14
0 28 34 71 55 68 11 -1 14 0 6 3 -19 9 83 63 139 74 25 5 62 12 84 15 57 8 65
15 50 44 l-13 25 -12 -27 c-7 -15 -18 -27 -25 -27 -29 0 -27 98 3 150 26 45
123 76 123 40 0 -6 6 -18 13 -25 31 -35 35 -44 32 -74 -1 -17 -11 -39 -21 -47
-18 -15 -18 -15 9 -11 23 4 27 1 21 -15 -4 -12 -1 -18 8 -16 8 2 12 -5 11 -19
-2 -13 -1 -23 1 -23 2 0 30 16 62 35 32 19 68 35 81 35 13 0 65 -15 116 -34
50 -19 122 -42 159 -52 36 -10 65 -21 62 -25 -4 -7 54 -25 69 -21 4 1 7 -2 7
-8 0 -5 7 -7 15 -4 8 3 29 1 47 -4 18 -5 60 -15 93 -21 33 -7 77 -16 98 -20
22 -5 40 -5 43 1 3 5 12 2 18 -8 9 -12 20 -15 40 -10 15 4 24 11 21 15 -3 5 4
7 15 4 12 -3 20 0 20 7 0 10 51 12 248 7 136 -4 267 -9 292 -12 58 -6 60 -6
220 -5 74 0 153 -1 175 -3 22 -1 69 3 105 11 36 7 90 14 120 16 30 1 64 8 76
14 15 8 24 8 32 0 8 -8 15 -8 24 0 16 13 113 33 153 32 17 0 39 3 50 8 52 23
84 30 88 18 3 -8 7 -8 18 1 8 6 43 17 79 23 36 7 72 15 80 18 8 3 24 6 35 8
11 1 36 6 55 9 19 4 72 9 118 11 46 2 91 8 100 13 10 5 44 9 76 9 48 -1 62 3
79 22 16 17 18 21 6 17 -26 -9 -41 13 -22 32 15 15 15 16 0 19 -9 2 -17 10
-17 18 0 8 -7 14 -15 14 -8 0 -25 10 -37 23 -13 12 -27 22 -32 22 -5 0 -10 9
-12 19 -1 11 -11 31 -22 45 -10 14 -22 38 -26 54 -3 15 -11 27 -16 27 -11 0
-1 31 14 43 7 6 4 7 -6 3 -16 -5 -17 3 -15 70 2 73 3 77 38 109 79 71 253 134
369 135 110 0 223 -51 263 -118 l22 -36 8 43 c7 36 6 46 -7 53 -9 5 -16 15
-16 23 0 8 -14 37 -31 65 -39 63 -73 176 -94 309 -8 57 -30 147 -47 200 -69
216 -136 290 -320 352 -82 28 -112 33 -251 39 l-157 8 -71 42 c-81 50 -152 63
-192 37 -24 -15 -38 -12 -152 39 -6 2 -11 -21 -11 -58 -2 -79 -35 -201 -80
-295 -32 -68 -56 -100 -203 -272 -27 -31 -82 -71 -98 -71 -19 0 -16 28 8 66
11 19 21 49 22 69 1 19 7 35 13 35 21 0 24 44 7 89 -13 35 -14 49 -5 75 10 28
10 29 -3 12 -14 -19 -15 -19 -15 -1 0 11 -19 -9 -48 -51 -26 -38 -58 -84 -72
-102 -16 -21 -24 -45 -23 -69 1 -20 -5 -54 -13 -76 -18 -51 -18 -63 1 -47 24
20 19 -23 -5 -45 -19 -17 -20 -17 -20 -1 0 15 -2 15 -13 4 -8 -7 -19 -24 -26
-37 -7 -13 -48 -63 -92 -111 -58 -65 -90 -93 -123 -105 -35 -13 -47 -24 -59
-55 -10 -26 -35 -53 -83 -89 -82 -62 -120 -106 -102 -117 7 -4 10 -4 6 1 -8 9
9 35 22 35 4 0 11 -7 14 -16 3 -8 2 -12 -4 -9 -17 10 -11 -12 8 -31 16 -17 16
-18 0 -11 -15 5 -18 1 -18 -28 0 -24 -5 -35 -15 -35 -8 0 -15 -4 -15 -10 0 -5
7 -10 15 -10 8 0 15 -4 15 -10 0 -15 -16 -12 -34 6 -9 8 -20 13 -25 9 -5 -3
-12 -1 -16 5 -3 5 2 10 12 11 14 0 15 2 3 6 -8 3 -19 12 -23 19 -9 16 -37 19
-37 3 0 -5 5 -7 12 -3 7 4 8 3 4 -5 -4 -6 -12 -8 -18 -5 -20 12 -231 10 -244
-3 -9 -10 -13 -10 -17 1 -7 18 3 56 14 56 5 0 9 12 9 26 0 20 4 25 16 20 9 -3
34 -9 55 -12 38 -6 39 -7 21 -24 -10 -9 -24 -19 -32 -22 -22 -8 34 -28 78 -28
58 1 114 32 197 112 43 40 102 97 133 126 30 28 53 55 49 58 -3 3 -46 -5 -96
-17 -49 -13 -93 -20 -97 -16 -13 12 1 17 96 35 53 10 95 23 98 30 2 7 -30 45
-71 85 -78 76 -101 109 -112 168 -5 28 -16 42 -46 60 -21 13 -39 28 -39 32 0
5 -4 5 -10 2 -5 -3 -21 6 -35 21 -14 16 -23 20 -19 11 12 -33 -6 -16 -26 24
-24 47 -20 65 5 22 15 -26 14 -16 -2 24 -4 10 -2 14 4 10 7 -5 9 1 6 15 -4 20
-2 19 12 -4 17 -31 32 -39 16 -10 -9 16 -6 18 24 18 18 -1 31 -4 28 -8 -2 -5
2 -8 9 -8 8 0 25 -13 40 -30 14 -16 29 -26 33 -22 5 4 5 2 1 -5 -3 -6 -2 -14
4 -18 6 -4 7 -11 3 -18 -9 -15 -4 -104 9 -136 5 -14 47 -65 94 -112 52 -54 84
-94 84 -108 0 -11 4 -21 9 -21 37 0 226 205 236 257 11 52 49 157 68 188 36
58 90 151 155 265 35 63 92 160 125 215 35 59 59 111 59 127 0 14 6 29 14 32
14 5 20 36 8 36 -13 0 -33 -35 -34 -57 0 -12 -4 -25 -10 -28 -6 -4 -7 1 -3 11
4 12 3 15 -5 10 -7 -4 -12 -13 -12 -20 0 -8 -11 -21 -25 -30 -14 -9 -25 -22
-25 -29 0 -7 -6 -19 -12 -25 -7 -7 -13 -18 -13 -24 0 -6 -13 -16 -28 -21 -16
-5 -40 -20 -55 -34 -43 -40 -104 -71 -142 -73 -154 -5 -215 3 -230 30 -7 13
-3 23 15 40 13 13 22 27 19 31 -3 5 6 5 19 0 21 -8 29 -5 51 20 14 16 30 29
35 29 5 0 11 9 14 19 4 17 0 19 -32 15 -28 -3 -32 -2 -16 5 19 9 18 10 -5 11
-59 3 -116 13 -128 23 -21 17 5 27 78 28 l65 2 -68 7 c-68 7 -99 22 -81 39 8
9 78 21 134 24 14 1 28 6 31 11 4 5 15 5 25 1 11 -4 27 -7 37 -6 11 2 17 -5
17 -18 0 -23 -16 -36 -25 -22 -3 6 -14 3 -25 -6 -11 -9 -18 -18 -17 -20 2 -1
25 4 52 11 118 33 159 68 84 73 -185 14 -308 17 -331 9 -15 -6 -30 -8 -33 -4
-14 13 11 38 58 58 29 12 59 28 67 36 9 7 39 18 68 25 29 6 66 22 83 37 27 22
35 24 60 15 35 -13 60 7 39 32 -15 18 -5 35 23 35 60 1 149 70 163 127 5 18 9
21 15 11 7 -10 9 -10 9 0 0 7 4 11 8 8 4 -2 30 13 57 35 91 73 115 72 115 -5
0 -27 9 -53 26 -78 34 -48 45 -48 32 -1 -17 61 13 98 58 71 5 -4 19 -6 30 -4
15 2 19 11 19 42 0 48 -25 57 -62 22 l-26 -23 7 26 c4 19 1 29 -9 33 -24 9
-17 36 11 46 19 8 24 15 19 28 -3 9 -11 75 -17 147 -8 95 -8 130 0 133 8 2 8
11 -2 30 -16 32 -30 105 -27 145 1 25 -1 27 -26 22 -27 -6 -27 -6 -9 9 17 14
18 16 3 16 -9 0 -17 6 -17 13 0 8 -4 7 -10 -3 -8 -12 -10 -10 -10 8 0 15 4 21
12 16 7 -5 8 -3 3 5 -4 7 -16 11 -26 8 -14 -4 -19 0 -19 13 0 24 -49 63 -72
57 -10 -3 -18 -1 -18 4 0 5 -8 9 -17 9 -16 0 -55 25 -183 115 -40 28 -165 61
-260 70 -50 4 -76 1 -110 -13z m371 -365 c35 -25 71 -54 81 -64 9 -10 32 -31
52 -47 20 -15 34 -32 31 -36 -3 -5 -1 -11 5 -15 5 -3 10 -15 10 -26 0 -11 4
-17 10 -14 6 3 7 -1 4 -9 -4 -9 0 -18 10 -22 8 -3 18 -21 22 -40 3 -19 10 -37
15 -40 11 -7 11 -65 0 -82 -14 -23 -63 -21 -90 4 -15 14 -37 23 -51 23 -14 -1
-36 3 -50 8 -14 6 -42 9 -63 7 -50 -4 -167 -44 -167 -56 0 -6 -11 -7 -25 -4
-18 5 -27 2 -31 -9 -4 -8 -14 -15 -24 -15 -9 0 -30 -6 -46 -14 -23 -12 -41
-12 -89 -3 -33 5 -73 11 -90 11 -16 1 -37 8 -45 16 -8 8 -28 25 -44 37 -24 19
-27 27 -21 50 5 16 9 33 9 39 1 6 9 18 19 28 16 16 22 37 18 60 -1 5 4 13 11
17 10 7 6 15 -17 35 -16 14 -24 23 -17 19 7 -4 12 1 13 14 2 29 3 34 12 48 14
22 123 70 182 80 17 3 39 10 50 16 20 11 28 12 125 26 96 13 123 7 191 -42z
m-653 -17 c-7 -10 -14 -17 -17 -15 -4 4 18 35 25 35 2 0 -1 -9 -8 -20z m-1674
-89 c3 -5 0 -14 -7 -19 -10 -8 -13 -6 -14 9 -2 19 11 26 21 10z m1696 -105
c-6 -20 -16 -36 -21 -36 -11 0 -11 6 0 28 5 9 12 26 16 36 3 10 8 16 11 13 3
-3 1 -22 -6 -41z m700 -251 c25 -13 29 -19 23 -45 -4 -24 -2 -30 11 -30 14 0
16 -7 11 -37 -11 -61 -16 -73 -30 -73 -9 0 -12 -6 -9 -15 17 -44 -63 -95 -151
-95 -86 0 -116 23 -140 106 -6 24 -13 24 120 5 77 -11 130 -5 101 11 -9 5 -25
7 -35 3 -11 -3 -22 -1 -26 5 -4 6 6 13 24 16 16 4 32 13 35 21 3 8 1 11 -4 8
-6 -3 -10 -1 -10 4 0 6 5 11 10 11 6 0 10 4 10 9 0 5 -10 7 -22 5 l-23 -5 23
10 c14 7 22 19 22 35 0 14 7 29 17 34 14 9 14 10 -6 17 -13 4 -38 4 -57 0 -21
-3 -34 -2 -34 5 0 16 107 12 140 -5z m183 -2 c-7 -2 -19 -2 -25 0 -7 3 -2 5
12 5 14 0 19 -2 13 -5z m-68 -81 c-21 -53 -50 -67 -40 -19 9 41 13 47 31 47 8
0 14 5 14 12 0 6 2 9 5 6 3 -3 -1 -24 -10 -46z m-281 12 c3 -8 2 -12 -4 -9 -6
3 -10 10 -10 16 0 14 7 11 14 -7z m-617 -51 c-3 -3 -11 -2 -17 2 -8 5 -7 11 2
22 12 15 13 14 16 -1 2 -10 1 -20 -1 -23z m536 -8 c20 -11 37 -22 37 -25 0 -3
-18 -4 -40 -2 -40 4 -70 30 -70 61 0 12 2 12 18 0 9 -8 34 -24 55 -34z m-108
15 c0 -10 -11 -15 -37 -16 -31 -1 -38 2 -38 18 0 16 6 19 38 16 25 -2 37 -8
37 -18z m665 -4 c0 -3 -4 -8 -10 -11 -5 -3 -10 -1 -10 4 0 6 5 11 10 11 6 0
10 -2 10 -4z m-1091 -48 c8 -22 -1 -37 -21 -38 -10 0 -10 44 -1 53 10 11 13 9
22 -15z m439 -36 c17 -27 52 -69 77 -93 68 -66 59 -101 -21 -79 -39 11 -47 11
-64 -5 -22 -20 -73 -13 -103 13 -16 14 -19 14 -31 -4 -11 -15 -17 -16 -27 -7
-9 9 -2 31 32 99 45 91 69 124 92 124 8 0 28 -22 45 -48z m-254 -170 c5 -9
-63 -6 -72 3 -3 3 11 5 31 5 20 0 38 -4 41 -8z m41 -99 c-1 -57 -12 -77 -37
-68 -38 15 -22 128 17 123 17 -3 20 -10 20 -55z m-25 -143 c22 -43 25 -60 10
-60 -12 0 -26 27 -33 68 -9 43 -2 41 23 -8z m405 30 c-3 -5 -11 -10 -16 -10
-6 0 -7 5 -4 10 3 6 11 10 16 10 6 0 7 -4 4 -10z m-751 -425 c-4 -8 -8 -15
-10 -15 -2 0 -4 7 -4 15 0 8 4 15 10 15 5 0 7 -7 4 -15z m94 -5 c1 -2 7 -4 12
-5 6 -1 12 -4 15 -5 3 -1 9 -3 15 -4 5 0 14 -6 21 -13 6 -6 19 -9 28 -5 14 5
14 4 1 -13 -8 -10 -10 -16 -4 -12 7 4 26 2 44 -5 31 -10 32 -12 14 -26 -19
-14 -18 -14 1 -8 44 13 69 -33 48 -87 -15 -36 -16 -37 -34 -21 -10 9 -16 21
-12 27 3 5 1 7 -5 4 -5 -4 -18 -4 -28 0 -16 6 -16 7 2 20 10 7 12 13 5 13 -7
0 -9 5 -5 12 4 7 3 8 -5 4 -6 -4 -9 -11 -6 -16 3 -4 -2 -10 -10 -14 -21 -8
-71 24 -83 53 -10 26 -11 25 -6 -4 l5 -30 -15 25 c-18 29 -20 44 -6 35 15 -9
12 1 -11 37 -19 30 -20 25 -2 -19 4 -11 3 -14 -6 -8 -10 6 -11 3 -2 -13 6 -11
11 -23 11 -26 0 -7 -54 4 -63 14 -11 10 2 52 14 45 5 -3 6 2 2 11 -10 26 41
53 65 34z m-108 -30 c0 -5 -5 -10 -11 -10 -5 0 -7 5 -4 10 3 6 8 10 11 10 2 0
4 -4 4 -10z m-13 -45 c-4 -8 -11 -15 -17 -15 -6 0 -6 7 2 20 14 22 24 19 15
-5z m36 -101 c-3 -9 2 -12 15 -9 12 2 23 -3 26 -11 3 -9 1 -12 -4 -9 -9 6 -14
-10 -13 -42 1 -7 -3 -13 -8 -13 -5 0 -9 -5 -9 -11 0 -6 6 -9 14 -6 8 3 17 -1
20 -10 5 -11 2 -14 -11 -8 -10 3 -30 9 -45 12 -16 3 -28 10 -28 15 0 5 -4 7
-8 4 -12 -7 -12 23 0 62 8 27 12 31 24 21 12 -9 13 -9 9 3 -4 9 0 15 9 15 8 0
12 -6 9 -13z m-613 -109 c10 -12 10 -15 -4 -15 -19 0 -20 -4 -4 -46 9 -26 9
-39 -2 -61 l-13 -28 -7 25 c-4 14 -3 35 1 46 4 13 3 26 -4 33 -6 6 -7 11 -3
11 5 0 1 11 -8 25 -16 24 -16 25 8 25 13 0 29 -7 36 -15z m-163 -42 c2 -6 -5
-13 -17 -16 -22 -6 -23 -5 -14 18 7 17 25 16 31 -2z m723 -18 c3 0 13 -5 24
-11 18 -11 17 -12 -5 -28 -13 -9 -19 -16 -14 -16 6 0 19 7 29 15 27 21 32 19
46 -15 7 -17 15 -29 17 -26 3 2 0 14 -7 25 -7 14 -7 21 0 21 5 0 10 -6 11 -12
0 -7 4 -4 9 7 5 11 9 14 9 6 1 -7 7 -11 15 -8 9 4 13 1 10 -6 -2 -7 3 -21 11
-32 16 -19 16 -19 5 3 -7 15 -7 22 0 22 5 0 10 -5 10 -11 0 -5 5 -7 12 -3 7 5
8 3 3 -6 -6 -10 -4 -12 11 -6 10 4 15 4 12 0 -4 -3 -1 -18 6 -33 11 -21 11
-33 1 -60 -15 -46 -25 -47 -61 -11 -16 16 -33 30 -39 30 -5 0 -3 -5 5 -10 9
-6 10 -10 3 -10 -6 0 -19 7 -27 16 -9 8 -16 12 -16 8 0 -3 -7 -1 -15 6 -8 7
-15 9 -15 5 0 -4 -7 -2 -15 5 -8 7 -15 9 -15 5 0 -4 -7 -1 -17 6 -9 8 -18 13
-20 12 -10 -8 -33 -1 -47 13 -21 21 -21 40 1 23 15 -13 15 -12 5 8 -15 27 -15
36 -2 28 6 -4 7 1 3 11 -7 20 24 47 41 36 6 -4 13 -7 16 -7z m-525 -45 c3 -5
1 -10 -4 -10 -6 0 -11 5 -11 10 0 6 2 10 4 10 3 0 8 -4 11 -10z m85 -75 c-8
-10 -1 -22 30 -47 22 -19 40 -40 40 -45 0 -6 16 -24 35 -40 l36 -28 -22 -61
c-26 -72 -21 -101 21 -129 16 -11 30 -25 30 -32 0 -7 -36 -50 -81 -97 -84 -88
-85 -89 -234 -137 -38 -12 -80 -28 -92 -37 -20 -13 -23 -12 -29 3 -12 32 4
190 31 300 30 121 35 200 16 257 -13 41 -7 68 12 49 22 -22 68 -11 123 28 36
26 61 37 74 34 15 -4 18 -9 10 -18z m150 -19 c0 -8 -7 -16 -15 -20 -10 -4 -15
1 -15 14 0 11 7 20 15 20 8 0 15 -6 15 -14z m75 -384 c-3 -3 -11 0 -18 7 -9
10 -8 11 6 5 10 -3 15 -9 12 -12z m-1068 -34 c-3 -8 -6 -5 -6 6 -1 11 2 17 5
13 3 -3 4 -12 1 -19z m1313 2 c8 -5 11 -10 5 -10 -5 0 -17 5 -25 10 -8 5 -10
10 -5 10 6 0 17 -5 25 -10z m-187 -88 c-3 -12 -10 -22 -15 -22 -5 0 -7 3 -5 8
2 4 7 16 11 26 9 25 17 16 9 -12z m493 -64 c-2 -10 0 -18 5 -18 5 0 9 -8 9
-17 0 -15 -2 -14 -15 3 -8 10 -14 37 -14 59 0 37 1 38 10 15 6 -14 8 -33 5
-42z m-161 12 c8 -13 -5 -13 -25 0 -13 8 -13 10 2 10 9 0 20 -4 23 -10z m-11
-16 c22 -9 20 -24 -3 -24 -21 0 -34 13 -24 24 8 7 8 7 27 0z m-1182 -134 c3
-55 3 -55 -27 -58 -16 -2 -38 3 -49 11 -18 13 -17 16 19 66 21 29 41 49 46 44
4 -4 9 -33 11 -63z m146 -143 c3 -16 1 -17 -17 -7 -25 13 -28 33 -4 28 10 -2
19 -11 21 -21z m-933 -194 c8 -40 15 -91 15 -114 0 -36 -2 -40 -15 -29 -8 7
-14 18 -13 24 1 6 -8 43 -19 81 -37 122 -38 133 -11 154 l23 19 3 -31 c2 -18
9 -64 17 -104z m1514 40 c-7 -10 -14 -19 -15 -21 -1 -1 -9 1 -19 4 -15 6 -15
8 6 20 33 18 44 17 28 -3z m-72 -79 c-3 -3 -12 -4 -19 -1 -8 3 -5 6 6 6 11 1
17 -2 13 -5z"/>
<path d="M2400 2787 c0 -10 59 -127 65 -127 2 0 0 12 -5 26 -8 21 -7 29 6 39
14 10 15 15 5 31 -11 18 -12 17 -6 -3 9 -31 -1 -29 -20 5 -13 22 -15 23 -10 5
9 -31 -1 -29 -19 5 -8 15 -15 23 -16 19z"/>
<path d="M2366 2707 c3 -10 9 -15 12 -12 3 3 0 11 -7 18 -10 9 -11 8 -5 -6z"/>
<path d="M2582 2685 c4 -4 3 -14 -3 -22 -6 -7 -8 -13 -3 -13 5 0 2 -5 -6 -11
-13 -9 -13 -10 0 -6 8 2 15 8 15 13 0 5 4 14 8 21 4 6 2 15 -5 19 -7 4 -10 4
-6 -1z"/>
<path d="M2290 2593 c0 -6 8 -17 18 -24 16 -13 16 -13 2 6 -8 11 -16 22 -17
24 -2 2 -3 0 -3 -6z"/>
<path d="M2285 2430 c6 -10 4 -12 -11 -6 -15 6 -17 5 -6 -5 9 -9 15 -10 23 -2
8 8 7 13 -2 18 -8 6 -10 4 -4 -5z"/>
<path d="M2336 2387 c3 -10 9 -15 12 -12 3 3 0 11 -7 18 -10 9 -11 8 -5 -6z"/>
<path d="M2294 2374 c-18 -14 -18 -15 4 -4 12 6 22 13 22 15 0 8 -5 6 -26 -11z"/>
<path d="M2330 2350 c6 -11 13 -20 16 -20 2 0 0 9 -6 20 -6 11 -13 20 -16 20
-2 0 0 -9 6 -20z"/>
<path d="M2360 2340 c6 -11 13 -20 16 -20 2 0 0 9 -6 20 -6 11 -13 20 -16 20
-2 0 0 -9 6 -20z"/>
<path d="M2390 2310 c-8 -5 -10 -10 -5 -10 6 0 17 5 25 10 8 5 11 10 5 10 -5
0 -17 -5 -25 -10z"/>
<path d="M3527 3503 c-15 -15 -6 -43 13 -43 18 0 19 3 9 23 -15 29 -15 28 -22
20z"/>
<path d="M3499 3358 c0 -2 -2 -10 -4 -18 -2 -8 -6 -24 -10 -35 -4 -11 2 -5 14
13 12 18 21 35 21 37 0 5 -19 7 -21 3z"/>
<path d="M3480 3208 c-13 -24 -54 -89 -92 -145 -58 -87 -118 -200 -118 -222 0
-3 9 8 20 24 23 34 27 23 5 -15 -8 -14 -14 -32 -14 -40 0 -8 7 -1 16 15 9 17
26 42 38 57 13 15 46 73 75 130 28 57 59 111 68 122 10 10 16 20 15 22 -2 2 0
5 5 7 4 1 7 -10 8 -24 1 -15 5 -35 9 -45 4 -11 7 -34 6 -51 -2 -19 2 -33 9
-33 7 0 9 -8 5 -20 -4 -11 -2 -20 4 -20 15 0 24 61 13 90 -5 14 -7 31 -5 38 3
7 -1 20 -8 28 -7 9 -18 40 -24 70 l-11 55 -24 -43z"/>
<path d="M2974 3115 c-14 -11 -15 -14 -4 -14 8 0 24 6 34 14 15 11 16 15 5 15
-8 0 -24 -7 -35 -15z"/>
<path d="M2485 2511 c-9 -15 15 -25 28 -12 9 9 7 10 -7 5 -13 -5 -17 -4 -12 4
4 7 5 12 2 12 -3 0 -7 -4 -11 -9z"/>
<path d="M2470 2480 c6 -11 15 -20 20 -20 6 0 2 9 -7 20 -10 11 -19 20 -21 20
-1 0 2 -9 8 -20z"/>
<path d="M2529 2495 c-1 -3 -3 -9 -4 -15 -1 -5 -3 -11 -5 -12 -8 -11 -6 -39 3
-45 7 -3 9 -3 5 2 -4 4 -3 14 3 22 6 7 8 13 5 13 -4 0 -2 9 4 20 7 14 7 20 0
20 -5 0 -11 -2 -11 -5z"/>
<path d="M635 1530 c-3 -6 1 -7 9 -4 18 7 21 14 7 14 -6 0 -13 -4 -16 -10z"/>
<path d="M1066 1475 c-9 -26 -7 -32 5 -12 6 10 9 21 6 23 -2 3 -7 -2 -11 -11z"/>
<path d="M4130 1290 c0 -5 5 -10 10 -10 6 0 10 5 10 10 0 6 -4 10 -10 10 -5 0
-10 -4 -10 -10z"/>
<path d="M1129 1264 c-7 -8 -26 -15 -43 -14 -48 3 -56 1 -56 -14 0 -8 -14 -17
-32 -21 -18 -4 -39 -12 -45 -17 -9 -7 -18 -6 -28 2 -17 14 -31 8 -20 -10 13
-21 205 4 205 27 0 7 10 17 23 22 13 5 29 16 36 25 12 14 11 16 -7 16 -11 0
-25 -7 -33 -16z"/>
<path d="M1341 1270 c-13 -6 -32 -8 -42 -5 -9 3 -20 1 -24 -5 -4 -6 -18 -16
-32 -21 -44 -17 -18 -20 28 -4 24 9 61 16 82 17 20 0 37 4 37 9 0 14 38 10 73
-7 30 -15 31 -15 15 1 -20 21 -102 30 -137 15z"/>
<path d="M763 918 c-59 -61 -83 -95 -83 -118 0 -6 5 -8 10 -5 6 3 10 14 10 24
0 9 16 33 36 52 36 34 99 109 92 109 -2 0 -31 -28 -65 -62z"/>
<path d="M1095 860 c-11 -5 -46 -9 -77 -9 -32 -1 -58 -5 -58 -9 0 -5 -27 -30
-60 -55 -72 -57 -98 -99 -79 -133 14 -27 34 -31 43 -9 10 27 23 16 20 -17 -2
-18 -1 -24 2 -13 4 11 11 25 16 32 5 7 7 16 4 21 -11 18 36 74 77 92 23 10 64
35 92 54 48 35 54 36 140 37 60 1 82 4 65 9 -34 11 -160 11 -185 0z m-78 -56
c-3 -3 -12 -4 -19 -1 -8 3 -5 6 6 6 11 1 17 -2 13 -5z"/>
<path d="M1388 853 c7 -3 16 -2 19 1 4 3 -2 6 -13 5 -11 0 -14 -3 -6 -6z"/>
<path d="M2205 660 c-102 -32 -502 -92 -600 -90 -64 1 -162 22 -210 44 -47 22
-147 40 -225 40 -50 0 -220 -84 -220 -109 1 -13 121 -100 235 -170 298 -184
645 -307 1005 -356 122 -17 497 -18 615 -1 267 38 508 107 736 211 123 56 335
177 393 224 l29 24 -162 -5 c-159 -5 -259 3 -421 33 -41 7 -112 19 -157 26
-46 7 -83 16 -83 21 0 5 -10 6 -23 3 -13 -4 -66 1 -118 11 -52 9 -114 20 -139
25 -25 4 -76 15 -115 24 -288 68 -430 80 -540 45z m-715 -120 c13 -9 13 -10 0
-10 -8 0 -22 5 -30 10 -13 9 -13 10 0 10 8 0 22 -5 30 -10z m-210 -40 c16 -13
20 -20 10 -19 -16 0 -50 22 -50 33 0 11 14 6 40 -14z"/>
</g>
</svg>
